<mxfile host="65bd71144e" modified="2021-02-26T03:30:22.989Z" agent="5.0 (Macintosh; Intel Mac OS X 11_2_1) AppleWebKit/537.36 (KHTML, like Gecko) Code/1.53.2 Chrome/87.0.4280.141 Electron/11.2.1 Safari/537.36" etag="rLOCE0JqjmMqcUME0J5I" version="14.2.4" type="embed">
    <diagram id="Y7j4tI3BBG5rM1zEuvAA" name="Page-1">
        <mxGraphModel dx="508" dy="810" grid="1" gridSize="10" guides="1" tooltips="1" connect="1" arrows="1" fold="1" page="1" pageScale="1" pageWidth="1100" pageHeight="1700" math="0" shadow="0">
            <root>
                <mxCell id="0"/>
                <mxCell id="1" parent="0"/>
                <mxCell id="tWeAfw1v_-9Y5gdLUTFN-3" value="" style="html=1;verticalLabelPosition=bottom;labelBackgroundColor=#ffffff;verticalAlign=top;shadow=0;dashed=0;strokeWidth=1;shape=mxgraph.ios7.misc.iphone;strokeColor=#c0c0c0;rounded=0;sketch=0;" parent="1" vertex="1">
                    <mxGeometry x="590" y="560" width="350" height="600" as="geometry"/>
                </mxCell>
                <mxCell id="30" value="" style="rounded=1;whiteSpace=wrap;html=1;" vertex="1" parent="1">
                    <mxGeometry x="600" y="570" width="330" height="580" as="geometry"/>
                </mxCell>
                <mxCell id="tWeAfw1v_-9Y5gdLUTFN-5" value="LOGO" style="ellipse;whiteSpace=wrap;html=1;aspect=fixed;rounded=0;sketch=0;" parent="1" vertex="1">
                    <mxGeometry x="620" y="602.5" width="45" height="45" as="geometry"/>
                </mxCell>
                <mxCell id="tWeAfw1v_-9Y5gdLUTFN-6" value="All tickets" style="text;html=1;strokeColor=none;fillColor=none;align=center;verticalAlign=middle;whiteSpace=wrap;rounded=0;sketch=0;" parent="1" vertex="1">
                    <mxGeometry x="730" y="615" width="80" height="20" as="geometry"/>
                </mxCell>
                <mxCell id="tWeAfw1v_-9Y5gdLUTFN-10" value="" style="rounded=1;whiteSpace=wrap;html=1;sketch=0;" parent="1" vertex="1">
                    <mxGeometry x="620" y="660" width="290" height="70" as="geometry"/>
                </mxCell>
                <mxCell id="tWeAfw1v_-9Y5gdLUTFN-11" value="" style="rounded=1;whiteSpace=wrap;html=1;sketch=0;" parent="1" vertex="1">
                    <mxGeometry x="620" y="740" width="290" height="70" as="geometry"/>
                </mxCell>
                <mxCell id="tWeAfw1v_-9Y5gdLUTFN-12" value="" style="rounded=1;whiteSpace=wrap;html=1;sketch=0;" parent="1" vertex="1">
                    <mxGeometry x="620" y="820" width="290" height="70" as="geometry"/>
                </mxCell>
                <mxCell id="tWeAfw1v_-9Y5gdLUTFN-13" value="" style="rounded=1;whiteSpace=wrap;html=1;sketch=0;" parent="1" vertex="1">
                    <mxGeometry x="620" y="900" width="290" height="70" as="geometry"/>
                </mxCell>
                <mxCell id="tWeAfw1v_-9Y5gdLUTFN-14" value="" style="rounded=1;whiteSpace=wrap;html=1;sketch=0;" parent="1" vertex="1">
                    <mxGeometry x="620" y="990" width="290" height="60" as="geometry"/>
                </mxCell>
                <mxCell id="tWeAfw1v_-9Y5gdLUTFN-15" value="" style="rounded=1;whiteSpace=wrap;html=1;sketch=0;" parent="1" vertex="1">
                    <mxGeometry x="620" y="700" width="290" height="30" as="geometry"/>
                </mxCell>
                <mxCell id="tWeAfw1v_-9Y5gdLUTFN-16" value="Solved" style="rounded=0;whiteSpace=wrap;html=1;sketch=0;fillColor=#60a917;strokeColor=#2D7600;fontColor=#ffffff;" parent="1" vertex="1">
                    <mxGeometry x="620" y="705" width="120" height="20" as="geometry"/>
                </mxCell>
                <mxCell id="tWeAfw1v_-9Y5gdLUTFN-17" value="&lt;b&gt;Canned Response -...&lt;/b&gt;" style="text;html=1;strokeColor=none;fillColor=none;align=center;verticalAlign=middle;whiteSpace=wrap;rounded=0;sketch=0;" parent="1" vertex="1">
                    <mxGeometry x="620" y="660" width="199" height="20" as="geometry"/>
                </mxCell>
                <mxCell id="tWeAfw1v_-9Y5gdLUTFN-19" value="" style="rounded=1;whiteSpace=wrap;html=1;sketch=0;" parent="1" vertex="1">
                    <mxGeometry x="620" y="780" width="290" height="30" as="geometry"/>
                </mxCell>
                <mxCell id="tWeAfw1v_-9Y5gdLUTFN-20" value="Hi support" style="text;html=1;strokeColor=none;fillColor=none;align=center;verticalAlign=middle;whiteSpace=wrap;rounded=0;sketch=0;" parent="1" vertex="1">
                    <mxGeometry x="630" y="680" width="130" height="20" as="geometry"/>
                </mxCell>
                <mxCell id="2" value="assigned to&amp;nbsp;" style="text;html=1;strokeColor=none;fillColor=none;align=center;verticalAlign=middle;whiteSpace=wrap;rounded=0;" vertex="1" parent="1">
                    <mxGeometry x="740" y="700" width="170" height="20" as="geometry"/>
                </mxCell>
                <mxCell id="3" value="John Doe" style="text;html=1;strokeColor=none;fillColor=none;align=center;verticalAlign=middle;whiteSpace=wrap;rounded=0;" vertex="1" parent="1">
                    <mxGeometry x="780" y="710" width="90" height="20" as="geometry"/>
                </mxCell>
                <mxCell id="4" value="How do we pull data..." style="text;html=1;strokeColor=none;fillColor=none;align=center;verticalAlign=middle;whiteSpace=wrap;rounded=0;fontStyle=1" vertex="1" parent="1">
                    <mxGeometry x="630" y="740" width="170" height="20" as="geometry"/>
                </mxCell>
                <mxCell id="5" value="Hello Support" style="text;html=1;strokeColor=none;fillColor=none;align=center;verticalAlign=middle;whiteSpace=wrap;rounded=0;" vertex="1" parent="1">
                    <mxGeometry x="647.5" y="760" width="95" height="20" as="geometry"/>
                </mxCell>
                <mxCell id="7" value="New" style="rounded=0;whiteSpace=wrap;html=1;fillColor=#0050ef;strokeColor=#001DBC;fontColor=#ffffff;" vertex="1" parent="1">
                    <mxGeometry x="622.5" y="785" width="120" height="20" as="geometry"/>
                </mxCell>
                <mxCell id="8" value="assigned to" style="text;html=1;strokeColor=none;fillColor=none;align=center;verticalAlign=middle;whiteSpace=wrap;rounded=0;" vertex="1" parent="1">
                    <mxGeometry x="790" y="780" width="80" height="20" as="geometry"/>
                </mxCell>
                <mxCell id="9" value="James Taylor&lt;br&gt;" style="text;html=1;strokeColor=none;fillColor=none;align=center;verticalAlign=middle;whiteSpace=wrap;rounded=0;" vertex="1" parent="1">
                    <mxGeometry x="785" y="790" width="90" height="20" as="geometry"/>
                </mxCell>
                <mxCell id="10" value="Can we configure sat" style="text;html=1;strokeColor=none;fillColor=none;align=center;verticalAlign=middle;whiteSpace=wrap;rounded=0;fontStyle=1" vertex="1" parent="1">
                    <mxGeometry x="620" y="820" width="185" height="20" as="geometry"/>
                </mxCell>
                <mxCell id="12" value="Hi there" style="text;html=1;strokeColor=none;fillColor=none;align=center;verticalAlign=middle;whiteSpace=wrap;rounded=0;" vertex="1" parent="1">
                    <mxGeometry x="647.5" y="840" width="70" height="20" as="geometry"/>
                </mxCell>
                <mxCell id="15" value="" style="rounded=1;whiteSpace=wrap;html=1;" vertex="1" parent="1">
                    <mxGeometry x="620" y="860" width="290" height="30" as="geometry"/>
                </mxCell>
                <mxCell id="19" value="Pending" style="rounded=0;whiteSpace=wrap;html=1;fillColor=#fa6800;strokeColor=#C73500;fontColor=#ffffff;" vertex="1" parent="1">
                    <mxGeometry x="622.5" y="865" width="120" height="20" as="geometry"/>
                </mxCell>
                <mxCell id="21" value="assigned to&amp;nbsp;" style="text;html=1;strokeColor=none;fillColor=none;align=center;verticalAlign=middle;whiteSpace=wrap;rounded=0;" vertex="1" parent="1">
                    <mxGeometry x="790" y="860" width="90" height="20" as="geometry"/>
                </mxCell>
                <mxCell id="26" value="John Smith" style="text;html=1;strokeColor=none;fillColor=none;align=center;verticalAlign=middle;whiteSpace=wrap;rounded=0;" vertex="1" parent="1">
                    <mxGeometry x="805" y="870" width="65" height="20" as="geometry"/>
                </mxCell>
                <mxCell id="31" value="" style="rounded=1;whiteSpace=wrap;html=1;" vertex="1" parent="1">
                    <mxGeometry x="620" y="1070" width="290" height="60" as="geometry"/>
                </mxCell>
                <mxCell id="32" value="Canned Response -..." style="text;html=1;strokeColor=none;fillColor=none;align=center;verticalAlign=middle;whiteSpace=wrap;rounded=0;fontStyle=1" vertex="1" parent="1">
                    <mxGeometry x="665" y="900" width="125" height="20" as="geometry"/>
                </mxCell>
                <mxCell id="33" value="Hi support" style="text;html=1;strokeColor=none;fillColor=none;align=center;verticalAlign=middle;whiteSpace=wrap;rounded=0;" vertex="1" parent="1">
                    <mxGeometry x="670" y="920" width="70" height="20" as="geometry"/>
                </mxCell>
                <mxCell id="37" value="" style="rounded=1;whiteSpace=wrap;html=1;" vertex="1" parent="1">
                    <mxGeometry x="620" y="950" width="290" height="30" as="geometry"/>
                </mxCell>
                <mxCell id="38" value="Solved" style="rounded=0;whiteSpace=wrap;html=1;fillColor=#60a917;strokeColor=#2D7600;fontColor=#ffffff;" vertex="1" parent="1">
                    <mxGeometry x="622.5" y="955" width="120" height="20" as="geometry"/>
                </mxCell>
                <mxCell id="39" value="assigned to James Taylor" style="text;html=1;strokeColor=none;fillColor=none;align=center;verticalAlign=middle;whiteSpace=wrap;rounded=0;" vertex="1" parent="1">
                    <mxGeometry x="785" y="955" width="90" height="20" as="geometry"/>
                </mxCell>
                <mxCell id="42" value="How do we pull data..." style="text;html=1;strokeColor=none;fillColor=none;align=center;verticalAlign=middle;whiteSpace=wrap;rounded=0;fontStyle=1" vertex="1" parent="1">
                    <mxGeometry x="665" y="990" width="130" height="20" as="geometry"/>
                </mxCell>
                <mxCell id="43" value="Hello Support" style="text;html=1;strokeColor=none;fillColor=none;align=center;verticalAlign=middle;whiteSpace=wrap;rounded=0;" vertex="1" parent="1">
                    <mxGeometry x="657.5" y="1010" width="75" height="20" as="geometry"/>
                </mxCell>
                <mxCell id="47" value="" style="rounded=1;whiteSpace=wrap;html=1;" vertex="1" parent="1">
                    <mxGeometry x="620" y="1030" width="290" height="30" as="geometry"/>
                </mxCell>
                <mxCell id="48" value="New" style="rounded=0;whiteSpace=wrap;html=1;fillColor=#0050ef;strokeColor=#001DBC;fontColor=#ffffff;" vertex="1" parent="1">
                    <mxGeometry x="622.5" y="1035" width="120" height="20" as="geometry"/>
                </mxCell>
                <mxCell id="49" value="Can we configure that" style="text;html=1;strokeColor=none;fillColor=none;align=center;verticalAlign=middle;whiteSpace=wrap;rounded=0;fontStyle=1" vertex="1" parent="1">
                    <mxGeometry x="662.5" y="1070" width="127.5" height="20" as="geometry"/>
                </mxCell>
                <mxCell id="50" value="Hi there" style="text;html=1;strokeColor=none;fillColor=none;align=center;verticalAlign=middle;whiteSpace=wrap;rounded=0;" vertex="1" parent="1">
                    <mxGeometry x="653.75" y="1090" width="57.5" height="20" as="geometry"/>
                </mxCell>
                <mxCell id="51" value="" style="rounded=1;whiteSpace=wrap;html=1;" vertex="1" parent="1">
                    <mxGeometry x="620" y="1110" width="290" height="30" as="geometry"/>
                </mxCell>
                <mxCell id="52" value="Pending" style="rounded=0;whiteSpace=wrap;html=1;fillColor=#fa6800;strokeColor=#C73500;fontColor=#ffffff;" vertex="1" parent="1">
                    <mxGeometry x="622.5" y="1115" width="120" height="20" as="geometry"/>
                </mxCell>
                <mxCell id="55" value="assigned to John Smith" style="text;html=1;strokeColor=none;fillColor=none;align=center;verticalAlign=middle;whiteSpace=wrap;rounded=0;" vertex="1" parent="1">
                    <mxGeometry x="785" y="1035" width="90" height="20" as="geometry"/>
                </mxCell>
                <mxCell id="56" value="assigned to John Smith" style="text;html=1;strokeColor=none;fillColor=none;align=center;verticalAlign=middle;whiteSpace=wrap;rounded=0;" vertex="1" parent="1">
                    <mxGeometry x="795" y="1115" width="70" height="20" as="geometry"/>
                </mxCell>
                <mxCell id="62" value="23h" style="text;html=1;strokeColor=none;fillColor=none;align=center;verticalAlign=middle;whiteSpace=wrap;rounded=0;" vertex="1" parent="1">
                    <mxGeometry x="860" y="670" width="40" height="20" as="geometry"/>
                </mxCell>
                <mxCell id="63" value="23h" style="text;html=1;strokeColor=none;fillColor=none;align=center;verticalAlign=middle;whiteSpace=wrap;rounded=0;" vertex="1" parent="1">
                    <mxGeometry x="860" y="750" width="40" height="20" as="geometry"/>
                </mxCell>
                <mxCell id="64" value="23h" style="text;html=1;strokeColor=none;fillColor=none;align=center;verticalAlign=middle;whiteSpace=wrap;rounded=0;" vertex="1" parent="1">
                    <mxGeometry x="860" y="830" width="40" height="20" as="geometry"/>
                </mxCell>
                <mxCell id="65" value="23h" style="text;html=1;strokeColor=none;fillColor=none;align=center;verticalAlign=middle;whiteSpace=wrap;rounded=0;" vertex="1" parent="1">
                    <mxGeometry x="860" y="910" width="40" height="20" as="geometry"/>
                </mxCell>
                <mxCell id="66" value="23h" style="text;html=1;strokeColor=none;fillColor=none;align=center;verticalAlign=middle;whiteSpace=wrap;rounded=0;" vertex="1" parent="1">
                    <mxGeometry x="860" y="1000" width="40" height="20" as="geometry"/>
                </mxCell>
                <mxCell id="67" value="23h" style="text;html=1;strokeColor=none;fillColor=none;align=center;verticalAlign=middle;whiteSpace=wrap;rounded=0;" vertex="1" parent="1">
                    <mxGeometry x="860" y="1080" width="40" height="20" as="geometry"/>
                </mxCell>
                <mxCell id="70" value="" style="ellipse;whiteSpace=wrap;html=1;aspect=fixed;fillColor=#e51400;strokeColor=#B20000;fontColor=#ffffff;" vertex="1" parent="1">
                    <mxGeometry x="882.5" y="866.25" width="17.5" height="17.5" as="geometry"/>
                </mxCell>
                <mxCell id="71" value="" style="ellipse;whiteSpace=wrap;html=1;aspect=fixed;fillColor=#f9f7ed;strokeColor=#36393d;" vertex="1" parent="1">
                    <mxGeometry x="878.75" y="702.5" width="21.25" height="21.25" as="geometry"/>
                </mxCell>
                <mxCell id="73" value="" style="ellipse;whiteSpace=wrap;html=1;aspect=fixed;fillColor=#e51400;strokeColor=#B20000;fontColor=#ffffff;" vertex="1" parent="1">
                    <mxGeometry x="882.5" y="786.25" width="17.5" height="17.5" as="geometry"/>
                </mxCell>
                <mxCell id="74" value="" style="ellipse;whiteSpace=wrap;html=1;aspect=fixed;fillColor=#f9f7ed;strokeColor=#36393d;" vertex="1" parent="1">
                    <mxGeometry x="882.5" y="957.5" width="17.5" height="17.5" as="geometry"/>
                </mxCell>
                <mxCell id="78" value="" style="ellipse;whiteSpace=wrap;html=1;aspect=fixed;fillColor=#e51400;strokeColor=#B20000;fontColor=#ffffff;" vertex="1" parent="1">
                    <mxGeometry x="882.5" y="1036.25" width="17.5" height="17.5" as="geometry"/>
                </mxCell>
                <mxCell id="79" value="" style="ellipse;whiteSpace=wrap;html=1;aspect=fixed;fillColor=#e51400;strokeColor=#B20000;fontColor=#ffffff;" vertex="1" parent="1">
                    <mxGeometry x="882.5" y="1115" width="17.5" height="17.5" as="geometry"/>
                </mxCell>
                <mxCell id="81" style="edgeStyle=orthogonalEdgeStyle;rounded=0;orthogonalLoop=1;jettySize=auto;html=1;" edge="1" parent="1" source="80">
                    <mxGeometry relative="1" as="geometry">
                        <mxPoint x="580" y="900" as="targetPoint"/>
                    </mxGeometry>
                </mxCell>
                <mxCell id="80" value="Ticket #2" style="text;html=1;strokeColor=none;fillColor=none;align=center;verticalAlign=middle;whiteSpace=wrap;rounded=0;" vertex="1" parent="1">
                    <mxGeometry x="490" y="890" width="50" height="20" as="geometry"/>
                </mxCell>
                <mxCell id="84" style="edgeStyle=orthogonalEdgeStyle;rounded=0;orthogonalLoop=1;jettySize=auto;html=1;exitX=1;exitY=0.5;exitDx=0;exitDy=0;" edge="1" parent="1" source="83">
                    <mxGeometry relative="1" as="geometry">
                        <mxPoint x="580" y="720" as="targetPoint"/>
                    </mxGeometry>
                </mxCell>
                <mxCell id="83" value="Ticket #1" style="text;html=1;strokeColor=none;fillColor=none;align=center;verticalAlign=middle;whiteSpace=wrap;rounded=0;" vertex="1" parent="1">
                    <mxGeometry x="495" y="710" width="40" height="20" as="geometry"/>
                </mxCell>
            </root>
        </mxGraphModel>
    </diagram>
</mxfile>